<svg xmlns="http://www.w3.org/2000/svg" viewBox="0 0 400 240" fill="none">
  <rect width="400" height="240" fill="#FDF8F5"/>
  <circle cx="200" cy="110" r="70" fill="#D4A574" opacity="0.06"/>
  <!-- Chef hat -->
  <ellipse cx="200" cy="70" rx="30" ry="20" fill="white" stroke="#D4A574" stroke-width="1.5" stroke-opacity="0.3"/>
  <rect x="175" y="75" width="50" height="15" rx="2" fill="white" stroke="#D4A574" stroke-width="1.5" stroke-opacity="0.3"/>
  <!-- Pan -->
  <ellipse cx="200" cy="130" rx="40" ry="12" fill="#7A6E6B" opacity="0.12" stroke="#7A6E6B" stroke-width="1.5" stroke-opacity="0.2"/>
  <line x1="240" y1="130" x2="280" y2="125" stroke="#7A6E6B" stroke-width="3" stroke-linecap="round" opacity="0.15"/>
  <!-- Steam -->
  <path d="M185 115 Q188 105 191 115" stroke="#D4A574" stroke-width="1.2" fill="none" opacity="0.25"/>
  <path d="M198 112 Q201 102 204 112" stroke="#D4A574" stroke-width="1.2" fill="none" opacity="0.25"/>
  <path d="M211 115 Q214 105 217 115" stroke="#D4A574" stroke-width="1.2" fill="none" opacity="0.25"/>
  <!-- Spoon and fork -->
  <line x1="120" y1="100" x2="120" y2="155" stroke="#D4A574" stroke-width="2" stroke-linecap="round" opacity="0.25"/>
  <ellipse cx="120" cy="97" rx="5" ry="8" fill="none" stroke="#D4A574" stroke-width="2" stroke-opacity="0.25"/>
  <line x1="285" y1="95" x2="285" y2="155" stroke="#D4A574" stroke-width="2" stroke-linecap="round" opacity="0.25"/>
  <line x1="280" y1="95" x2="280" y2="110" stroke="#D4A574" stroke-width="1.5" stroke-linecap="round" opacity="0.2"/>
  <line x1="290" y1="95" x2="290" y2="110" stroke="#D4A574" stroke-width="1.5" stroke-linecap="round" opacity="0.2"/>
  <!-- Hearts -->
  <path d="M150 80c0-3 3-6 5-6s5 3 5 6c0 8-5 12-5 12s-5-4-5-12z" fill="#F2B5C8" opacity="0.35"/>
  <path d="M240 85c0-3 2-5 4-5s4 2 4 5c0 6-4 10-4 10s-4-4-4-10z" fill="#F2B5C8" opacity="0.3"/>
  <text x="200" y="205" text-anchor="middle" font-family="serif" font-size="14" fill="#3D3533" opacity="0.6">Aula de Culinaria</text>
</svg>
