<svg xmlns="http://www.w3.org/2000/svg" viewBox="0 0 400 240" fill="none">
  <rect width="400" height="240" fill="#FDF8F5"/>
  <circle cx="200" cy="110" r="70" fill="#D4A574" opacity="0.06"/>
  <!-- Wine glass -->
  <path d="M175 80 Q175 105 190 110" stroke="#D4A574" stroke-width="2" fill="none" opacity="0.3"/>
  <path d="M205 80 Q205 105 190 110" stroke="#D4A574" stroke-width="2" fill="none" opacity="0.3"/>
  <line x1="190" y1="110" x2="190" y2="140" stroke="#D4A574" stroke-width="2" opacity="0.3"/>
  <line x1="178" y1="140" x2="202" y2="140" stroke="#D4A574" stroke-width="2" opacity="0.3"/>
  <path d="M178 95 Q190 92 202 95" fill="#F2B5C8" opacity="0.2"/>
  <!-- Plate -->
  <ellipse cx="200" cy="130" rx="50" ry="15" fill="none" stroke="#D4A574" stroke-width="1.5" opacity="0.2"/>
  <ellipse cx="200" cy="130" rx="35" ry="10" fill="none" stroke="#D4A574" stroke-width="1" opacity="0.15"/>
  <!-- Food on plate -->
  <circle cx="192" cy="128" r="6" fill="#A8B5A0" opacity="0.2"/>
  <circle cx="208" cy="126" r="5" fill="#F2B5C8" opacity="0.2"/>
  <circle cx="200" cy="132" r="4" fill="#D4A574" opacity="0.2"/>
  <!-- Knife and fork -->
  <line x1="140" y1="105" x2="140" y2="155" stroke="#7A6E6B" stroke-width="1.5" stroke-linecap="round" opacity="0.2"/>
  <line x1="136" y1="105" x2="136" y2="118" stroke="#7A6E6B" stroke-width="1" stroke-linecap="round" opacity="0.15"/>
  <line x1="144" y1="105" x2="144" y2="118" stroke="#7A6E6B" stroke-width="1" stroke-linecap="round" opacity="0.15"/>
  <line x1="260" y1="105" x2="260" y2="155" stroke="#7A6E6B" stroke-width="2" stroke-linecap="round" opacity="0.2"/>
  <rect x="256" y="105" width="8" height="2" rx="1" fill="#7A6E6B" opacity="0.15"/>
  <!-- Decorative herbs -->
  <path d="M240 90 Q250 80 255 90" stroke="#A8B5A0" stroke-width="1.5" fill="none" opacity="0.25"/>
  <path d="M245 88 Q252 78 257 88" stroke="#A8B5A0" stroke-width="1.2" fill="none" opacity="0.2"/>
  <!-- Hearts -->
  <path d="M280 75c0-3 3-6 5-6s5 3 5 6c0 8-5 12-5 12s-5-4-5-12z" fill="#F2B5C8" opacity="0.35"/>
  <text x="200" y="205" text-anchor="middle" font-family="serif" font-size="14" fill="#3D3533" opacity="0.6">Experiencia Gastronomica</text>
</svg>
