<svg xmlns="http://www.w3.org/2000/svg" viewBox="0 0 400 240" fill="none">
  <rect width="400" height="240" fill="#FDF8F5"/>
  <circle cx="200" cy="110" r="65" fill="#F2B5C8" opacity="0.15"/>
  <circle cx="200" cy="110" r="45" fill="#FDF8F5" stroke="#D4A574" stroke-width="2"/>
  <!-- Sushi roll -->
  <rect x="178" y="95" width="44" height="30" rx="8" fill="#A8B5A0" opacity="0.7"/>
  <circle cx="190" cy="110" r="6" fill="#F2B5C8"/>
  <circle cx="210" cy="110" r="6" fill="#F2B5C8"/>
  <!-- Chopsticks -->
  <line x1="150" y1="80" x2="195" y2="130" stroke="#D4A574" stroke-width="3" stroke-linecap="round"/>
  <line x1="160" y1="78" x2="205" y2="128" stroke="#D4A574" stroke-width="3" stroke-linecap="round"/>
  <!-- Hearts -->
  <path d="M255 75c0-5 4-9 9-9s9 4 9 9c0 12-9 18-9 18s-9-6-9-18z" fill="#F2B5C8" opacity="0.5" transform="rotate(-15 264 80)"/>
  <path d="M135 80c0-4 3-7 7-7s7 3 7 7c0 9-7 14-7 14s-7-5-7-14z" fill="#F2B5C8" opacity="0.4" transform="rotate(15 142 84)"/>
  <!-- Decorative dots -->
  <circle cx="120" cy="50" r="3" fill="#D4A574" opacity="0.3"/>
  <circle cx="280" cy="55" r="2" fill="#D4A574" opacity="0.3"/>
  <circle cx="300" cy="170" r="3" fill="#A8B5A0" opacity="0.3"/>
  <circle cx="100" cy="165" r="2" fill="#A8B5A0" opacity="0.3"/>
  <text x="200" y="200" text-anchor="middle" font-family="serif" font-size="14" fill="#3D3533" opacity="0.6">Jantar Japones</text>
</svg>
